<?xml version="1.0" standalone="no"?>
<!DOCTYPE svg PUBLIC "-//W3C//DTD SVG 20010904//EN"
 "http://www.w3.org/TR/2001/REC-SVG-20010904/DTD/svg10.dtd">
<svg version="1.0" xmlns="http://www.w3.org/2000/svg"
 width="400.000000pt" height="400.000000pt" viewBox="0 0 400.000000 400.000000"
 preserveAspectRatio="xMidYMid meet">
<metadata>
Created by potrace 1.16, written by Peter Selinger 2001-2019
</metadata>
<g transform="translate(0.000000,400.000000) scale(0.100000,-0.100000)"
fill="#000000" stroke="none">
<path d="M2246 3831 c-3 -4 -28 -11 -56 -15 -27 -4 -49 -11 -47 -17 1 -6 -39
-25 -89 -43 -114 -41 -138 -58 -215 -154 -102 -127 -150 -176 -160 -160 -6 9
-9 6 -9 -12 0 -14 -17 -49 -37 -77 -21 -29 -50 -71 -64 -95 -35 -57 -92 -250
-123 -414 -33 -169 -40 -188 -65 -174 -25 13 -36 -3 -33 -45 l2 -30 -13 30
c-12 27 -14 19 -25 -105 -13 -151 -16 -297 -5 -286 4 4 6 23 4 42 -1 22 3 42
12 52 9 9 30 73 47 142 53 211 162 516 181 504 5 -3 9 4 9 15 0 12 5 21 10 21
6 0 10 9 10 20 0 11 5 20 10 20 6 0 10 6 10 13 0 6 6 24 14 39 8 15 17 40 21
57 4 17 11 31 16 31 5 0 9 6 9 14 0 15 68 107 104 141 64 60 146 101 146 73 0
-7 7 -3 15 9 18 26 62 38 81 22 11 -9 14 -8 14 6 0 15 6 17 46 11 26 -3 55 -6
65 -6 12 0 21 -10 25 -25 5 -20 11 -24 28 -19 11 3 26 12 32 20 8 11 22 11 65
3 101 -19 109 -21 109 -34 0 -8 9 -10 25 -7 36 6 78 -23 69 -50 -6 -19 -4 -20
22 -12 28 7 55 8 125 3 20 -1 36 4 44 14 15 21 29 22 21 2 -7 -18 5 -20 23 -2
10 10 15 9 25 -5 7 -10 18 -18 24 -18 6 0 9 -6 6 -13 -2 -7 6 -18 18 -25 46
-23 148 -62 161 -62 8 0 31 -11 51 -25 20 -14 48 -25 61 -25 14 0 33 -12 47
-29 13 -16 33 -34 45 -40 12 -6 24 -23 27 -39 4 -15 20 -36 36 -47 19 -13 30
-29 30 -43 0 -13 7 -36 15 -51 13 -27 17 -60 15 -161 -1 -44 -18 -78 -27 -52
-7 19 -23 14 -23 -7 0 -10 -7 -32 -15 -47 -9 -16 -13 -42 -10 -59 3 -22 1 -19
-11 13 -9 23 -22 42 -30 42 -8 0 -14 7 -14 15 0 8 5 15 11 15 5 0 7 5 4 10 -4
6 -10 8 -15 5 -5 -3 -19 -1 -30 5 -21 11 -21 11 1 -32 12 -24 25 -45 29 -48 3
-3 10 -13 13 -24 5 -13 3 -17 -8 -13 -8 4 -17 2 -20 -4 -4 -5 1 -12 9 -15 17
-7 22 -34 7 -34 -6 0 -17 10 -27 23 l-16 22 6 -27 c3 -15 2 -30 -4 -33 -5 -3
-10 -1 -10 4 0 6 -7 11 -15 11 -8 0 -15 5 -15 10 0 6 -11 15 -25 20 -14 5 -25
15 -25 21 0 8 -6 7 -17 -3 -15 -12 -66 -17 -90 -8 -5 2 -12 4 -18 5 -13 3 -85
33 -106 45 -10 5 -20 5 -27 -2 -7 -7 -14 -4 -21 11 -7 12 -21 21 -31 21 -11 0
-20 4 -20 9 0 5 -10 9 -22 10 -82 3 -125 8 -135 14 -9 6 -13 2 -13 -12 0 -23
-25 -29 -33 -8 -4 7 -6 6 -6 -4 -1 -9 -8 -20 -17 -23 -22 -8 -26 -8 -19 4 3 6
2 10 -4 10 -5 0 -18 3 -28 7 -15 6 -16 4 -6 -8 11 -14 7 -16 -29 -17 -23 -1
-45 -8 -50 -15 -6 -9 -8 -9 -8 1 0 7 -6 12 -12 11 -32 -4 -46 3 -52 24 -5 18
-8 20 -16 7 -8 -12 -10 -11 -10 7 0 13 -10 27 -22 34 -13 7 -41 32 -64 56 -39
41 -60 49 -116 45 -10 -1 -18 5 -18 13 0 13 -4 14 -21 4 -17 -9 -25 -7 -43 10
-24 22 -42 27 -48 12 -1 -5 -21 -1 -43 10 -22 11 -53 18 -68 16 -18 -2 -31 1
-34 10 -3 7 -11 13 -19 13 -8 0 -14 10 -14 26 0 22 -2 24 -15 14 -8 -6 -19 -9
-25 -5 -5 3 -10 1 -10 -4 0 -6 -7 -11 -15 -11 -8 0 -15 -4 -15 -10 0 -5 -4
-10 -10 -10 -5 0 -10 7 -10 16 0 10 -6 14 -14 11 -8 -3 -17 -1 -20 6 -3 7 -3
-6 -1 -28 3 -22 2 -34 -1 -27 -8 17 -24 15 -24 -3 0 -7 -6 -18 -13 -22 -20
-12 -58 -79 -54 -94 2 -8 2 -11 0 -6 -8 14 -25 7 -19 -8 3 -8 -1 -33 -9 -55
-8 -22 -11 -40 -8 -40 4 0 -4 -11 -17 -25 -14 -15 -21 -31 -17 -44 3 -11 0
-22 -7 -25 -7 -3 -7 -5 2 -5 6 -1 12 -11 12 -23 0 -19 -2 -20 -10 -8 -9 13
-11 13 -19 1 -12 -19 -24 -98 -16 -111 3 -5 1 -10 -4 -10 -6 0 -11 -9 -11 -20
0 -11 -4 -20 -10 -20 -5 0 -10 -7 -10 -15 0 -9 -6 -28 -14 -44 -9 -17 -11 -32
-5 -42 7 -11 9 -9 9 9 0 13 7 30 15 38 13 14 16 14 21 0 7 -19 1 -53 -8 -46
-12 8 -38 -34 -27 -44 5 -6 9 -18 9 -27 0 -14 8 -17 38 -14 20 1 42 -1 49 -7
8 -6 10 -4 6 11 -3 12 -11 17 -19 14 -8 -3 -18 5 -24 22 -15 39 -12 55 9 55
14 0 19 7 17 25 0 14 -5 25 -10 25 -5 0 -6 3 -3 6 4 4 13 1 22 -6 13 -11 14
-10 9 4 -5 12 0 16 22 16 39 0 56 13 48 34 -4 10 1 25 11 36 11 12 13 20 7 20
-7 0 -12 7 -12 15 0 9 -7 18 -15 21 -8 4 -12 10 -9 15 3 5 -2 9 -10 9 -9 0
-16 5 -16 10 0 6 9 10 20 10 11 0 20 4 20 10 0 5 7 7 15 4 8 -3 22 1 30 10 23
23 38 20 30 -6 -8 -25 -8 -26 -6 -48 1 -12 4 -11 12 3 11 19 36 16 77 -10 23
-14 23 -15 6 -34 -17 -18 -16 -19 19 -19 19 0 43 -7 52 -16 10 -10 24 -14 39
-10 15 4 26 1 29 -7 4 -9 8 -9 14 -1 5 7 53 13 116 16 88 4 107 2 107 -10 0
-8 -6 -12 -15 -9 -19 8 -31 -11 -16 -26 16 -16 14 -69 -5 -95 -15 -21 -14 -22
15 -22 26 0 32 5 40 33 9 31 9 31 10 5 1 -38 21 -36 21 1 0 17 5 33 11 36 5 4
7 19 4 35 -5 22 -2 28 14 33 14 3 21 13 21 30 0 13 9 36 20 49 14 19 18 34 13
62 -4 23 -2 36 6 36 6 0 11 -6 11 -12 0 -8 5 -6 11 4 8 14 19 16 60 12 71 -7
115 -43 124 -102 4 -25 9 -52 12 -61 4 -14 3 -14 -6 -1 -9 13 -11 13 -11 -2 0
-11 -8 -18 -20 -18 -22 0 -25 -7 -10 -30 8 -13 10 -12 10 3 0 21 13 22 30 2 7
-8 17 -15 23 -15 5 0 15 -7 21 -15 6 -8 22 -17 35 -20 13 -2 39 -17 58 -32 58
-46 154 -92 206 -99 27 -4 51 -13 54 -20 3 -8 10 -14 15 -14 6 0 8 7 5 14 -5
12 7 15 69 13 40 -1 74 -5 74 -9 0 -5 6 -8 14 -8 8 0 25 -20 37 -45 16 -31 25
-41 31 -33 5 10 8 10 8 1 0 -23 -23 -26 -41 -5 -16 21 -39 30 -39 15 0 -3 7
-15 17 -25 9 -10 12 -18 7 -18 -17 0 -32 15 -37 35 -2 11 -2 7 0 -10 7 -53 7
-69 -1 -110 l-8 -39 19 23 c18 22 20 22 36 6 21 -20 22 -55 2 -55 -8 0 -15 -4
-15 -9 0 -17 33 -5 40 14 4 12 9 15 13 8 8 -13 -2 -43 -14 -43 -15 0 -10 -20
10 -42 16 -16 18 -25 9 -44 -9 -18 -19 -24 -45 -24 -18 0 -33 5 -33 10 0 6 10
8 23 5 22 -6 23 -4 19 24 -5 35 -22 42 -22 10 0 -16 -5 -20 -20 -16 -15 4 -19
0 -17 -17 2 -16 -4 -22 -26 -24 -39 -5 -62 5 -49 21 5 6 6 21 2 32 -5 15 -8 9
-14 -25 -5 -31 -3 -46 6 -52 10 -6 9 -8 -4 -8 -9 0 -20 5 -23 10 -3 5 -13 10
-21 10 -11 0 -13 -6 -9 -20 4 -11 2 -20 -4 -20 -6 0 -14 15 -19 33 -7 28 -13
32 -44 35 -24 2 -37 9 -41 21 -2 9 -21 25 -41 35 -31 14 -36 22 -36 50 0 19
-9 43 -20 56 -11 13 -20 29 -20 36 0 7 -11 21 -25 32 -14 11 -25 24 -25 30 0
10 -29 26 -42 24 -5 -1 -8 10 -9 25 0 20 -2 23 -7 11 -6 -14 -11 -15 -43 -4
-35 12 -36 12 -31 -8 3 -11 16 -32 29 -46 13 -14 23 -32 23 -40 0 -30 -12 -59
-27 -64 -9 -4 -12 -1 -8 7 4 6 0 5 -7 -4 -13 -16 -16 -16 -50 1 -20 10 -39 15
-42 12 -3 -3 -14 1 -23 9 -41 32 -67 41 -122 38 -65 -3 -109 13 -177 65 -45
34 -72 46 -60 27 4 -5 0 -12 -6 -14 -10 -4 -9 -8 2 -16 24 -17 7 -13 -36 9
l-39 19 34 -6 c31 -5 33 -4 26 16 -3 12 0 34 8 50 13 26 13 30 0 35 -8 3 -11
1 -8 -5 4 -5 1 -16 -5 -24 -7 -8 -10 -26 -7 -40 4 -24 3 -26 -27 -19 -45 9
-57 22 -50 53 10 44 42 64 94 57 52 -6 94 14 72 36 -7 7 -12 8 -12 4 0 -5 -7
-3 -16 5 -10 8 -18 9 -22 3 -4 -6 -27 -11 -52 -12 -95 -4 -142 -13 -136 -28 7
-17 -20 -33 -48 -28 -12 3 -15 2 -8 -2 21 -10 13 -21 -19 -28 -32 -6 -59 -27
-59 -45 0 -16 -11 -13 -26 6 -7 10 -16 14 -21 9 -4 -5 -2 -11 5 -13 6 -3 12
-12 12 -20 0 -9 -6 -13 -15 -10 -8 4 -17 2 -20 -3 -10 -16 -35 -12 -29 5 5 12
-1 15 -27 14 -24 -1 -27 -3 -11 -6 26 -5 29 -18 6 -27 -10 -4 -13 -13 -9 -26
7 -21 -9 -28 -21 -9 -3 6 -15 8 -26 6 -25 -7 -45 39 -29 65 15 25 14 33 -4 18
-8 -7 -22 -10 -30 -6 -19 7 -20 36 0 36 8 0 15 7 15 15 0 22 -28 18 -35 -4 -6
-19 -20 -22 -41 -8 -7 4 -14 -3 -18 -18 -9 -35 -29 -32 -22 3 3 15 8 45 11 67
4 38 4 37 -10 -10 -45 -151 -69 -397 -45 -460 6 -15 12 -42 15 -60 2 -18 11
-60 20 -94 18 -70 19 -68 -50 -136 -48 -47 -134 -116 -230 -184 -89 -64 -147
-110 -309 -246 -146 -122 -152 -126 -269 -156 -45 -11 -92 -30 -104 -41 -22
-21 -30 -26 -94 -62 -19 -10 -76 -50 -126 -88 l-93 -69 0 -289 0 -290 2000 0
2000 0 0 717 0 717 -35 31 c-20 16 -38 42 -40 58 -7 36 0 34 41 -9 l34 -37 0
60 c0 33 -5 65 -12 72 -10 11 -10 13 0 7 18 -11 15 -2 -27 82 -86 169 -138
297 -191 467 -78 251 -173 518 -223 627 -39 84 -94 171 -105 164 -6 -4 -10 14
-15 67 -1 9 -5 17 -10 17 -5 0 -7 11 -5 25 3 14 1 25 -3 25 -5 0 -9 23 -9 51
0 36 -6 58 -20 76 -11 14 -20 38 -20 54 0 18 -7 32 -21 39 -11 6 -19 19 -18
28 3 30 -1 37 -11 22 -8 -13 -10 -12 -10 3 0 9 -11 23 -25 29 -19 8 -22 14
-14 24 8 9 5 16 -11 24 -11 6 -18 15 -14 21 9 15 -66 79 -92 79 -13 0 -34 10
-47 23 -47 45 -102 87 -113 87 -6 0 -19 9 -29 20 -10 11 -27 22 -39 26 -11 4
-37 23 -56 43 -20 20 -54 48 -75 61 -51 31 -79 34 -284 26 -52 -2 -108 1 -123
6 -21 8 -38 6 -68 -6 -50 -20 -54 -20 -46 -1 6 16 -9 21 -18 6z m1065 -1846
c12 8 12 -17 0 -48 -7 -18 -6 -24 4 -24 8 0 12 4 9 9 -3 4 0 8 5 8 6 0 11 9
11 20 0 11 4 20 9 20 5 0 13 9 16 21 4 11 9 19 11 16 7 -7 -42 -120 -83 -192
-22 -38 -70 -110 -106 -158 -37 -49 -67 -92 -67 -95 -1 -8 -50 -45 -50 -38 0
3 10 14 22 26 12 11 18 23 15 27 -4 3 -7 1 -7 -5 0 -7 -4 -12 -10 -12 -5 0 0
24 11 53 12 28 28 79 36 112 30 128 32 133 52 128 10 -2 24 2 32 9 8 8 22 17
33 21 13 5 16 12 10 25 -4 9 -7 27 -7 39 1 14 -4 20 -13 16 -26 -10 -14 15 19
41 l32 26 3 -25 c2 -14 8 -23 13 -20z m-1506 -163 c1 -1 14 2 28 7 19 8 35 6
64 -8 80 -39 132 -51 199 -47 48 3 69 9 80 23 11 15 15 15 23 4 6 -9 11 -10
15 -2 13 20 23 11 19 -16 -4 -22 -2 -25 6 -13 9 12 11 10 11 -12 0 -16 5 -28
10 -28 6 0 10 4 10 9 0 13 30 7 40 -8 5 -9 10 -10 14 -2 11 17 36 13 34 -6 -3
-44 2 -52 31 -50 16 1 27 5 24 10 -2 4 1 7 7 7 12 0 16 -10 24 -62 4 -35 3
-38 -19 -38 -13 0 -27 5 -30 10 -3 6 -14 10 -24 10 -10 0 -24 7 -31 15 -6 8
-15 14 -18 13 -7 -1 -21 4 -82 30 -19 8 -62 18 -95 22 -33 4 -77 14 -98 23
-20 10 -52 23 -69 31 -18 8 -68 17 -111 21 -55 5 -80 12 -84 22 -4 10 -8 11
-13 4 -4 -8 -14 -9 -31 -2 -21 8 -22 10 -6 16 9 4 17 12 17 17 0 6 8 17 18 24
14 10 18 10 26 -4 5 -9 10 -18 11 -20z m35 -132 c12 -28 14 -29 30 -15 16 15
19 15 34 0 9 -9 16 -24 16 -33 0 -13 3 -12 16 6 20 30 40 28 75 -7 27 -28 31
-29 60 -17 41 17 78 9 91 -20 9 -18 15 -21 29 -14 32 18 49 12 49 -17 0 -24 1
-25 18 -11 46 40 78 24 56 -29 -18 -41 -49 -60 -62 -37 -5 9 -14 14 -21 10
-16 -10 -13 -24 7 -29 10 -3 6 -5 -11 -6 -16 0 -26 3 -23 7 2 4 -11 12 -30 18
-19 6 -37 7 -40 3 -8 -14 -41 -10 -86 10 -24 11 -60 23 -81 26 -21 3 -41 13
-44 21 -3 7 -16 14 -29 14 -13 0 -29 9 -36 19 -6 10 -17 17 -25 14 -7 -3 -16
2 -19 12 -4 9 -13 14 -20 11 -9 -3 -15 6 -20 30 -7 38 2 57 16 34 8 -12 10
-11 10 6 0 44 21 41 40 -6z m-191 -22 c22 -24 41 -49 41 -56 0 -8 5 -10 13 -6
9 5 8 3 -1 -7 -11 -12 -15 -11 -23 4 -6 9 -21 17 -35 17 -15 0 -23 -4 -19 -10
4 -6 10 -8 14 -6 4 3 13 0 21 -6 12 -8 12 -9 -2 -4 -10 3 -18 1 -18 -3 0 -11
31 -25 48 -22 8 1 16 -7 19 -18 4 -14 13 -21 30 -21 13 0 22 -4 18 -10 -3 -5
12 -14 34 -20 22 -6 44 -16 48 -23 13 -21 61 -47 85 -47 13 0 35 -6 50 -14 15
-8 42 -13 60 -11 18 1 39 -2 46 -8 8 -6 12 -6 12 2 0 6 9 11 20 11 11 0 20 7
20 15 0 8 -4 15 -10 15 -5 0 -10 -5 -10 -11 0 -7 -8 -9 -22 -4 -13 4 -37 6
-55 6 -31 -2 -31 -1 -23 29 6 22 5 30 -4 30 -9 0 -12 -9 -8 -25 3 -20 0 -25
-17 -25 -12 0 -20 4 -17 8 2 4 1 14 -5 22 -7 12 -9 12 -9 1 0 -11 -3 -11 -16
0 -13 10 -17 10 -25 -2 -8 -12 -11 -11 -19 3 -7 10 -17 15 -27 11 -11 -4 -14
-2 -11 8 3 8 15 13 27 12 15 -2 21 3 21 17 0 22 3 24 28 11 9 -4 52 -20 95
-34 59 -20 84 -24 98 -17 27 15 68 2 66 -21 -1 -10 -4 -19 -8 -19 -9 0 -30
-60 -21 -61 4 0 19 -2 35 -4 23 -3 27 0 28 23 1 15 3 20 6 10 6 -25 96 -28
147 -5 22 10 43 21 46 25 3 4 17 13 33 19 15 7 27 17 27 23 0 5 6 10 14 10 12
0 14 -14 7 -37 -3 -11 3 -17 12 -15 8 2 8 -1 0 -9 -19 -19 -16 -41 5 -35 13 5
17 -1 19 -23 2 -26 -2 -30 -32 -35 -21 -4 -35 -13 -35 -21 0 -8 -7 -15 -15
-15 -22 0 -18 -18 5 -25 11 -3 20 -13 20 -22 0 -13 -3 -13 -15 -3 -16 13 -45
7 -45 -10 0 -5 7 -10 16 -10 13 0 14 -3 5 -13 -6 -8 -8 -17 -4 -20 3 -4 1 -7
-5 -7 -7 0 -12 7 -12 15 0 8 -4 15 -10 15 -5 0 -10 -7 -10 -15 0 -10 -10 -15
-27 -15 -21 0 -24 -3 -15 -12 18 -18 15 -38 -5 -39 -11 0 -13 -3 -5 -6 6 -2
12 -9 12 -15 0 -6 -6 -8 -14 -5 -7 3 -20 -3 -29 -14 -9 -10 -24 -19 -32 -19
-8 0 -15 -4 -15 -10 0 -5 -9 -10 -19 -10 -14 0 -18 -5 -14 -20 4 -16 2 -19
-11 -14 -9 3 -16 10 -16 15 0 5 -4 9 -10 9 -5 0 -10 -10 -10 -22 0 -18 -2 -20
-9 -9 -8 12 -12 12 -25 2 -12 -10 -15 -7 -18 21 l-4 33 -11 -26 c-11 -26 -43
-47 -43 -29 0 6 -7 10 -16 10 -10 0 -14 6 -10 15 6 17 -9 21 -19 5 -3 -5 -11
-10 -18 -10 -8 0 -8 3 1 12 17 17 15 33 -3 18 -8 -7 -21 -10 -30 -7 -8 4 -20
-2 -28 -14 -9 -12 -20 -17 -31 -13 -16 6 -16 8 -1 24 13 14 13 19 3 22 -16 6
-58 -12 -58 -24 0 -4 -4 -8 -9 -8 -11 0 -1 53 11 61 6 4 8 14 6 23 -2 14 -7
12 -30 -9 -21 -19 -28 -22 -28 -10 0 8 6 15 14 15 8 0 16 7 20 15 7 19 2 19
-36 -1 -18 -9 -26 -19 -20 -23 7 -4 8 -12 2 -21 -8 -12 -10 -12 -10 4 0 18 -1
18 -19 2 -16 -15 -19 -15 -24 -1 -4 9 -1 15 7 15 7 0 21 9 31 20 10 11 24 20
32 20 7 0 13 5 13 10 0 13 -17 13 -26 -1 -4 -8 -9 -8 -17 0 -6 6 -21 11 -34
11 -13 0 -23 6 -23 13 -1 28 -15 36 -53 28 -21 -5 -37 -5 -37 0 0 5 9 10 20
10 32 2 38 4 46 11 4 4 -1 10 -10 14 -10 4 -22 2 -29 -5 -6 -6 -25 -11 -42
-10 -29 0 -29 1 -7 11 12 6 22 15 22 20 0 5 -10 7 -22 4 l-23 -6 23 11 c25 13
29 29 8 29 -7 0 -27 7 -42 15 -20 10 -23 15 -11 15 9 0 17 5 17 11 0 5 4 8 9
5 5 -4 7 2 4 13 -3 11 2 21 11 24 12 5 16 0 16 -16 1 -21 1 -22 15 -3 11 15
15 16 16 5 1 -8 5 2 8 21 6 33 -4 54 -21 44 -4 -3 -13 7 -18 21 -6 15 -15 23
-21 19 -8 -4 -8 -9 0 -17 6 -6 11 -20 11 -31 0 -15 -3 -17 -12 -8 -13 13 -21
65 -21 125 1 44 -9 48 -24 10 -7 -16 -11 -21 -10 -13 1 8 -5 25 -12 38 -7 13
-9 31 -5 40 4 9 6 22 6 28 -1 6 4 11 10 12 44 3 58 8 63 20 2 7 1 11 -3 8 -5
-3 -9 1 -9 9 0 21 1 20 46 -27z m1467 -248 c32 -11 68 -24 79 -29 11 -5 41
-16 66 -25 53 -19 70 -36 89 -86 7 -19 53 -128 102 -243 48 -114 88 -212 88
-217 0 -12 -3 -12 -76 0 -111 20 -100 8 -114 119 -9 77 -9 115 0 173 15 90 3
123 -59 164 l-39 25 -54 -17 c-29 -9 -78 -28 -108 -41 -58 -25 -153 -53 -182
-53 -24 0 -23 23 1 44 11 10 41 60 68 112 30 59 54 94 64 94 9 0 42 -9 75 -20z
m-370 -640 c-7 -48 -26 -91 -36 -85 -4 3 -13 -2 -20 -10 -10 -12 -9 -15 4 -15
19 0 19 -2 5 -34 -6 -13 -17 -22 -23 -20 -7 3 -18 -7 -25 -22 -6 -15 -14 -24
-18 -21 -3 3 -12 0 -20 -8 -8 -8 -24 -15 -36 -15 -13 0 -17 -3 -11 -8 6 -4 14
-17 18 -29 6 -18 3 -22 -14 -20 -16 1 -20 8 -20 35 0 42 -19 33 -21 -11 -2
-30 -2 -31 -6 -4 -5 30 -23 38 -23 10 0 -12 -3 -14 -8 -6 -10 17 -59 27 -66
14 -10 -16 -23 -14 -30 5 -4 10 3 18 24 26 33 11 36 18 18 36 -20 20 1 13 23
-7 19 -18 22 -18 38 -3 15 15 15 18 1 29 -8 7 -10 12 -5 13 18 0 33 -14 36
-35 6 -27 25 -20 22 8 -1 12 0 17 3 10 4 -8 12 -5 26 9 20 20 22 20 35 3 12
-17 13 -17 13 11 1 28 1 28 15 10 14 -19 15 -19 15 7 0 18 10 34 29 48 21 15
33 36 41 70 14 59 25 65 16 9z m-1026 -152 c0 -10 5 -18 10 -18 6 0 10 7 10
15 0 8 3 15 8 15 4 0 6 -19 4 -42 -2 -32 -1 -39 7 -28 6 8 11 23 11 33 0 9 4
17 9 17 14 0 41 -29 41 -45 0 -7 6 -15 14 -18 8 -3 16 -16 18 -29 2 -15 9 -22
21 -20 16 3 17 -3 7 -48 0 -3 -8 4 -16 15 -14 19 -16 19 -25 3 -12 -21 -29
-24 -29 -5 0 7 -13 18 -30 24 -25 9 -30 9 -30 -3 0 -8 -4 -14 -8 -14 -4 0 -6
16 -4 36 4 30 1 36 -18 41 -20 5 -21 10 -15 49 4 30 3 44 -5 44 -6 0 -8 5 -4
11 8 14 24 -8 24 -33z m513 -101 c13 -12 30 -21 39 -19 11 2 16 -5 16 -23 0
-14 -4 -28 -9 -31 -5 -3 -9 -15 -9 -27 0 -16 -3 -18 -12 -9 -9 9 -9 15 0 24 7
7 12 21 12 32 -1 19 -2 19 -13 5 -8 -11 -24 -16 -50 -14 -28 3 -37 0 -37 -12
0 -10 -6 -13 -17 -8 -21 8 -21 8 -51 6 -15 -1 -26 -9 -29 -21 -7 -25 -23 -26
-24 -2 0 15 -1 15 -8 -2 -7 -19 -8 -19 -15 0 -8 19 -8 19 -16 -1 -7 -16 -9
-17 -9 -3 -1 9 -9 18 -18 21 -20 4 80 57 110 57 9 0 17 7 17 15 0 18 36 20 43
3 4 -8 6 -7 6 4 1 14 14 22 44 27 4 0 18 -9 30 -22z"/>
<path d="M1820 1440 c-8 -5 -17 -7 -21 -4 -4 2 -10 0 -14 -6 -4 -6 -11 -8 -16
-5 -5 4 -9 -3 -9 -14 0 -27 20 -38 35 -17 12 15 13 15 19 0 8 -20 0 -33 -28
-44 l-21 -9 21 -6 c15 -5 20 -12 17 -26 -6 -23 10 -25 28 -2 11 13 11 17 1 20
-6 3 -10 9 -6 14 8 14 24 11 24 -6 0 -8 6 -13 13 -11 6 1 9 1 5 -1 -12 -7 -10
-33 2 -33 14 0 12 -27 -2 -36 -7 -4 -10 -4 -6 1 4 4 3 16 -3 26 -9 18 -12 18
-39 4 -16 -8 -36 -15 -45 -15 -8 0 -15 -4 -15 -8 0 -5 14 -7 30 -4 17 2 30 8
30 13 0 5 7 9 15 9 8 0 14 -3 14 -7 -4 -26 4 -33 37 -33 21 0 33 4 29 10 -4 6
-3 10 2 9 26 -5 33 4 33 41 0 43 14 54 24 18 8 -30 8 -53 -1 -45 -8 8 -32 -23
-33 -43 0 -8 18 4 39 27 36 37 51 44 51 21 0 -4 -5 -8 -11 -8 -17 0 -35 -23
-42 -55 -7 -28 -6 -29 8 -11 13 17 18 18 39 6 21 -11 27 -10 42 5 16 16 16 18
1 27 -9 5 -17 14 -17 20 0 16 32 37 58 38 33 0 27 -17 -9 -24 -19 -3 -28 -10
-23 -17 4 -8 9 -7 15 2 7 11 12 12 29 2 11 -7 23 -13 26 -13 4 0 2 6 -4 13 -7
8 -6 16 3 24 10 9 15 9 17 1 2 -6 10 -9 18 -6 9 3 3 10 -18 19 -18 7 -32 17
-32 21 0 8 23 12 49 9 7 -2 11 4 9 11 -3 7 -34 18 -74 24 -102 17 -244 55
-244 66 0 6 -6 8 -14 5 -8 -3 -16 -2 -18 3 -2 6 -9 6 -18 0z"/>
</g>
</svg>
