<?xml version="1.0" standalone="no"?>
<!DOCTYPE svg PUBLIC "-//W3C//DTD SVG 20010904//EN"
 "http://www.w3.org/TR/2001/REC-SVG-20010904/DTD/svg10.dtd">
<svg version="1.0" xmlns="http://www.w3.org/2000/svg"
 width="255.000000pt" height="103.000000pt" viewBox="0 0 255.000000 103.000000"
 preserveAspectRatio="xMidYMid meet">

<g transform="translate(0.000000,103.000000) scale(0.100000,-0.100000)"
fill="#000000" stroke="none">
<path d="M0 515 l0 -515 1275 0 1275 0 0 515 0 515 -1275 0 -1275 0 0 -515z
m560 270 c21 -12 45 -39 58 -65 20 -39 23 -56 19 -128 -4 -91 -17 -119 -77
-159 -29 -20 -46 -23 -131 -23 l-99 0 0 201 0 201 98 -4 c74 -3 106 -8 132
-23z m365 -175 l51 -195 -49 -3 c-27 -2 -51 -1 -54 2 -3 3 -8 20 -12 38 -6 31
-10 33 -53 36 l-46 3 -7 -40 -7 -41 -55 0 c-43 0 -54 3 -50 14 3 7 26 94 52
192 26 99 49 183 52 187 3 4 32 7 65 5 l61 -3 52 -195z m235 70 l35 -125 3
128 3 127 44 0 45 0 0 -200 0 -201 -67 3 -67 3 -37 130 -37 130 -1 -132 -1
-133 -40 0 -40 0 0 200 0 201 62 -3 63 -3 35 -125z m292 40 l3 -91 50 91 50
90 342 0 c190 0 343 -4 343 -9 0 -5 -3 -23 -6 -40 -6 -28 -10 -31 -45 -31
l-39 0 0 -160 0 -160 -55 0 -55 0 0 160 0 160 -45 0 c-36 0 -45 4 -46 18 -1
16 -2 16 -6 0 -3 -13 -15 -18 -44 -18 l-39 0 0 -160 0 -160 -55 0 -55 0 0 160
0 160 -45 0 -45 0 0 38 0 37 -28 -45 c-16 -25 -39 -64 -52 -88 l-24 -43 52
-105 c29 -57 52 -106 52 -109 0 -3 -25 -5 -55 -5 l-55 0 -49 103 -49 102 -1
-102 -1 -103 -55 0 -55 0 0 200 0 200 55 0 54 0 3 -90z m678 -450 l0 -30 -875
0 -875 0 0 30 0 30 875 0 875 0 0 -30z"/>
<path d="M440 606 c0 -124 0 -126 23 -126 48 0 67 36 67 127 0 86 -15 117 -58
121 l-32 3 0 -125z"/>
<path d="M791 651 c-15 -93 -15 -91 19 -91 17 0 30 1 30 3 0 13 -29 149 -32
153 -3 2 -10 -27 -17 -65z"/>
</g>
</svg>
